FFmpeg version SVN-r25716, Copyright (c) 2000-2010 the FFmpeg developers  built on Nov 10 2010 12:23:18 with gcc 4.1.2 20080704 (Red Hat 4.1.2-48)  configuration: --enable-libmp3lame --enable-shared --disable-mmx --arch=x86_64  libavutil     50.33. 0 / 50.33. 0  libavcore      0.12. 1 /  0.12. 1  libavcodec    52.94. 4 / 52.94. 4  libavformat   52.84. 0 / 52.84. 0  libavdevice   52. 2. 2 / 52. 2. 2  libavfilter    1.59. 0 /  1.59. 0  libswscale     0.12. 0 /  0.12. 0Input #0, avi, from '/RAID10/data/converted_video_files/47502.avi':  Duration: 00:00:01.70, start: 0.000000, bitrate: 283086 kb/s    Stream #0.0: Video: msvideo1, rgb555le, 1024x1024, 30 tbr, 30 tbn, 30 tbc[buffer @ 0x8382c20] w:1024 h:1024 pixfmt:rgb555le[ffsink @ 0x83bcfa0] auto-inserting filter 'auto-inserted scaler 0' between the filter 'src' and the filter 'out'[scale @ 0x83bd2c0] w:1024 h:1024 fmt:rgb555le -> w:1024 h:1024 fmt:yuv420p flags:0x4Output #0, flv, to '/RAID10/data/converted_video_files/47502.flv':  Metadata:    encoder         : Lavf52.84.0    Stream #0.0: Video: flv, yuv420p, 1024x1024, q=2-31, 600 kb/s, 1k tbn, 24 tbcStream mapping:  Stream #0.0 -> #0.0Press [q] to stop encodingframe=    6 fps=  0 q=6.9 size=     854kB time=0.25 bitrate=27968.3kbits/s dup=0 drop=1    frame=   14 fps= 12 q=27.3 size=     920kB time=0.58 bitrate=12930.9kbits/s dup=0 drop=3    frame=   23 fps= 14 q=31.0 size=     939kB time=0.96 bitrate=8029.9kbits/s dup=0 drop=5    frame=   32 fps= 15 q=31.0 size=     981kB time=1.33 bitrate=6026.7kbits/s dup=0 drop=8    frame=   41 fps= 15 q=31.0 Lsize=    1022kB time=1.71 bitrate=4902.7kbits/s dup=0 drop=10    video:1021kB audio:0kB global headers:0kB muxing overhead 0.082802%